<svg xmlns="http://www.w3.org/2000/svg" viewBox="0 0 200.23 41.58">
  <defs>
    <style>
      .cls-1 {
        fill: #1a70b3;
      }
    </style>
  </defs>
  <g id="Layer_2" data-name="Layer 2">
    <g id="Layer_1-2" data-name="Layer 1">
      <path class="cls-1" d="M26.93,19.73A65.83,65.83,0,0,1,25.52,7.05a12.45,12.45,0,0,1,2.13-7H15.18A5.73,5.73,0,0,0,9.93,4.39C9.2,7.2.61,39.79,0,41.58H6A4.39,4.39,0,0,0,10.05,38v0L11,34.4l.08-.31H24l.08.31,1.86,7.18a21.45,21.45,0,0,0,2.29-8.77A64.63,64.63,0,0,0,26.93,19.73ZM13.54,24.68l4-15.34,4,15.34ZM51,0c-2.45,0-4.44,2.32-4.44,5.19V27.34a6.82,6.82,0,0,1-1.31,4.46,4.43,4.43,0,0,1-3.61,1.58A4.43,4.43,0,0,1,38,31.78a6.85,6.85,0,0,1-1.3-4.44V0H29.59a25,25,0,0,0-.2,2.89A68.31,68.31,0,0,0,30.77,15,59.59,59.59,0,0,1,32,28a32.4,32.4,0,0,1-4,13.47H42.67a13.07,13.07,0,0,0,5.91-1.16,9.92,9.92,0,0,0,3.57-2.88,13.05,13.05,0,0,0,2.5-4.79,20.72,20.72,0,0,0,.79-5.82V0Z"/>
      <g>
        <path class="cls-1" d="M83,39.26l-2.73-7.49H79.22a.52.52,0,0,0-.45.27L75.91,39.9h.74a.5.5,0,0,0,.48-.36l0-.09.64-1.82h3.51l.8,2.27h.43a.5.5,0,0,0,.5-.51A.57.57,0,0,0,83,39.26ZM78.13,36.7l1.43-4,1.43,4Z"/>
        <path class="cls-1" d="M108.57,39.26l-2.73-7.49h-1.09a.49.49,0,0,0-.44.27l-2.86,7.86h.73a.5.5,0,0,0,.48-.36l0-.09.64-1.82h3.51l.8,2.27h.43a.51.51,0,0,0,.51-.51A.59.59,0,0,0,108.57,39.26Zm-4.9-2.56,1.43-4,1.42,4Z"/>
        <path class="cls-1" d="M169.7,39.1l-2.37-2.76a2.61,2.61,0,0,0,1.22-.89A2.34,2.34,0,0,0,169,34a2,2,0,0,0-.25-1.07,1.85,1.85,0,0,0-.69-.7,2.34,2.34,0,0,0-.88-.34,6.1,6.1,0,0,0-1.23-.1h-1.73a.54.54,0,0,0-.54.54V39.9h.54a.54.54,0,0,0,.54-.54V36.67h1.52L169,39.9h.29a.51.51,0,0,0,.51-.52A.47.47,0,0,0,169.7,39.1Zm-3.86-3.34h-1.09V32.7H166a4.26,4.26,0,0,1,.76.06,1.35,1.35,0,0,1,.55.22,1.06,1.06,0,0,1,.41.46,1.49,1.49,0,0,1,.12.62,2.28,2.28,0,0,1-.11.75,1.41,1.41,0,0,1-1,.86A3.87,3.87,0,0,1,165.84,35.76Z"/>
        <path class="cls-1" d="M90.36,32.27a.51.51,0,0,1,.51-.5h.5v7.62a.5.5,0,0,1-.5.51H90l-3.86-7.27v6.76a.5.5,0,0,1-.5.51h-.51V32.27a.51.51,0,0,1,.51-.5h1.17l3.51,6.64Z"/>
        <path class="cls-1" d="M115.91,32.27a.51.51,0,0,1,.51-.5h.5v7.62a.5.5,0,0,1-.5.51h-.84l-3.85-7.27v6.76a.5.5,0,0,1-.5.51h-.51V32.27a.51.51,0,0,1,.51-.5h1.17l3.51,6.64Z"/>
        <path class="cls-1" d="M138.4,32.27a.5.5,0,0,1,.5-.5h.51v7.62a.51.51,0,0,1-.51.51h-.83l-3.85-7.27v6.76a.51.51,0,0,1-.51.51h-.5V32.27a.5.5,0,0,1,.5-.5h1.17l3.52,6.64Z"/>
        <path class="cls-1" d="M129.39,32.31a.54.54,0,0,1,.54-.54h.54v4.86a5.4,5.4,0,0,1-.19,1.54,2.47,2.47,0,0,1-.64,1.1,2.37,2.37,0,0,1-1,.6,4,4,0,0,1-1.31.2,3.83,3.83,0,0,1-1.33-.21,2.47,2.47,0,0,1-1-.59,2.66,2.66,0,0,1-.63-1.08,5.33,5.33,0,0,1-.2-1.56V32.31a.54.54,0,0,1,.54-.54h.54v4.92a5.48,5.48,0,0,0,.09,1,2.06,2.06,0,0,0,.31.69,1.49,1.49,0,0,0,.65.54,2.47,2.47,0,0,0,1,.18,2.43,2.43,0,0,0,1-.18,1.47,1.47,0,0,0,.66-.54,2,2,0,0,0,.3-.71,4.68,4.68,0,0,0,.09-1Z"/>
        <path class="cls-1" d="M141.89,39.9v-.42a.41.41,0,0,1,.42-.41H143V32.6h-1.07v-.42a.41.41,0,0,1,.42-.41h2.79v.41a.41.41,0,0,1-.41.42H144v6.47h1.06v.41a.41.41,0,0,1-.41.42Z"/>
        <path class="cls-1" d="M180.08,39.9v-.42a.41.41,0,0,1,.41-.41h.65V32.6h-1.06v-.42a.41.41,0,0,1,.41-.41h2.8v.41a.42.42,0,0,1-.42.42h-.65v6.47h1.07v.41a.42.42,0,0,1-.42.42Z"/>
        <path class="cls-1" d="M146.9,32.4a.52.52,0,0,1,0-.18.46.46,0,0,1,.48-.46h.47l2.55,7.16,2.45-6.87a.61.61,0,0,1,.47-.28H154l-2.85,7.84,0,0a.55.55,0,0,1-.44.24h-1.08l-2.72-7.5"/>
        <path class="cls-1" d="M155.93,39.9V32.31a.54.54,0,0,1,.54-.54h4.81v.48a.47.47,0,0,1-.48.48H157V35h4.27v.48a.48.48,0,0,1-.48.48H157v3h4.27v.48a.48.48,0,0,1-.48.48Z"/>
        <path class="cls-1" d="M188.69,39.36a.54.54,0,0,1-.54.54h-.54V32.73h-2.9v-.48a.47.47,0,0,1,.48-.48h6.4v.48a.47.47,0,0,1-.48.48h-2.42Z"/>
        <path class="cls-1" d="M192.67,32.38a.39.39,0,0,1-.06-.21.4.4,0,0,1,.4-.4h.48l2.22,3.63L198,31.77h1.15l-2.86,4.56v3a.54.54,0,0,1-.54.54h-.54V36.45Z"/>
        <path class="cls-1" d="M172.34,38.41a.36.36,0,0,0-.2-.06.38.38,0,0,0-.39.38v.66a7.57,7.57,0,0,0,1.43.49,6.86,6.86,0,0,0,1.58.16,4.47,4.47,0,0,0,1.4-.19,3.39,3.39,0,0,0,1-.55,2,2,0,0,0,.62-.78,2.17,2.17,0,0,0,.23-.94,1.91,1.91,0,0,0-.46-1.36,2.79,2.79,0,0,0-1.37-.73c-.3-.07-.66-.15-1.09-.22s-.76-.14-1-.19a1.75,1.75,0,0,1-.92-.44,1.12,1.12,0,0,1-.27-.8,1.09,1.09,0,0,1,.53-.92,2.35,2.35,0,0,1,1.39-.36,4.79,4.79,0,0,1,1.55.25,4.24,4.24,0,0,1,.77.35h0l.11,0a.38.38,0,0,0,.39-.39v-.6a6.55,6.55,0,0,0-1.27-.4,7,7,0,0,0-1.57-.17,3.56,3.56,0,0,0-2.19.65A2,2,0,0,0,171.8,34a2,2,0,0,0,.52,1.44,3,3,0,0,0,1.6.78c.36.08.7.14,1,.18s.62.11.89.18a1.91,1.91,0,0,1,.81.4,1.1,1.1,0,0,1,.26.8,1.15,1.15,0,0,1-.56,1,2.69,2.69,0,0,1-1.56.38,4.55,4.55,0,0,1-1.52-.28,4.84,4.84,0,0,1-.89-.41Z"/>
        <path class="cls-1" d="M94.44,38.41a.37.37,0,0,0-.21-.06.38.38,0,0,0-.38.38v.66a7.48,7.48,0,0,0,1.42.49,7,7,0,0,0,1.58.16,4.43,4.43,0,0,0,1.4-.19,3.33,3.33,0,0,0,1-.55,2.24,2.24,0,0,0,.84-1.72,1.87,1.87,0,0,0-.46-1.36,2.76,2.76,0,0,0-1.36-.73c-.3-.07-.66-.15-1.09-.22s-.76-.14-1-.19a1.75,1.75,0,0,1-.92-.44,1.17,1.17,0,0,1-.26-.8,1.07,1.07,0,0,1,.53-.92,2.33,2.33,0,0,1,1.39-.36,4.84,4.84,0,0,1,1.55.25,4.58,4.58,0,0,1,.77.35h0l.12,0a.38.38,0,0,0,.38-.39v-.6a6.44,6.44,0,0,0-1.26-.4,7,7,0,0,0-1.58-.17,3.53,3.53,0,0,0-2.18.65,2.13,2.13,0,0,0-.34,3.12,2.94,2.94,0,0,0,1.6.78c.35.08.69.14,1,.18s.61.11.89.18a1.81,1.81,0,0,1,.8.4,1.06,1.06,0,0,1,.27.8,1.15,1.15,0,0,1-.56,1,2.74,2.74,0,0,1-1.57.38,4.49,4.49,0,0,1-1.51-.28,4.84,4.84,0,0,1-.89-.41Z"/>
      </g>
      <g>
        <path class="cls-1" d="M154.1,16.14a3.4,3.4,0,0,1-1.82-2.88,3.33,3.33,0,0,1,1.82-2.86A9.13,9.13,0,0,1,159,9.27a8.86,8.86,0,0,1,4.87,1.13,3.34,3.34,0,0,1,1.72,2.86,3.4,3.4,0,0,1-1.75,2.88,10.72,10.72,0,0,1-9.7,0Zm7.58-4.32a5.51,5.51,0,0,0-2.72-.53,5.61,5.61,0,0,0-2.76.54,1.62,1.62,0,0,0-.93,1.43,1.67,1.67,0,0,0,.93,1.45,5.36,5.36,0,0,0,2.76.57,5,5,0,0,0,2.72-.58,1.72,1.72,0,0,0,.9-1.47A1.58,1.58,0,0,0,161.68,11.82Z"/>
        <path class="cls-1" d="M161.86,4.31A1.11,1.11,0,0,0,163,3.2v-1h-7a1.11,1.11,0,0,0-1.11,1.11v1Z"/>
        <path class="cls-1" d="M165.51,8.05a1.12,1.12,0,0,0,1.12-1.12v-1H152.32A1.12,1.12,0,0,0,151.2,7v1Z"/>
        <path class="cls-1" d="M144.67,3.63A1.33,1.33,0,0,1,146,2.29h1.35v23A1.34,1.34,0,0,1,146,26.66h-1.35V14h-3.13V24.22a1.33,1.33,0,0,1-1.34,1.33h-1.35V4.18a1.34,1.34,0,0,1,1.34-1.34h1.35v8.64h3.13V3.63Z"/>
        <path class="cls-1" d="M86.38,13.71a7.37,7.37,0,0,1-9.7,0,5.84,5.84,0,0,1-1.89-4.39,5.91,5.91,0,0,1,1.89-4.4,7.34,7.34,0,0,1,9.7,0,5.92,5.92,0,0,1,1.9,4.4A5.85,5.85,0,0,1,86.38,13.71Zm-2-7.09a4.26,4.26,0,0,0-5.76,0,3.92,3.92,0,0,0-1,2.7,3.89,3.89,0,0,0,1,2.68,4.26,4.26,0,0,0,5.76,0,3.84,3.84,0,0,0,1-2.68A3.87,3.87,0,0,0,84.41,6.62Z"/>
        <path class="cls-1" d="M106.11,4.34A1.39,1.39,0,0,1,107.5,3H109V5a10.11,10.11,0,0,0,1.62,5.5,11.17,11.17,0,0,0,5.14,4.11l-1.4,1.55s-.19.3-.44.3a1.43,1.43,0,0,1-.63-.23,15.48,15.48,0,0,1-3.07-2.26,10.55,10.55,0,0,1-2.69-3.49,10,10,0,0,1-2.45,3.76,15.49,15.49,0,0,1-3.29,2.51,1,1,0,0,1-.62.15,1.17,1.17,0,0,1-.61-.25l-1.42-1.32a12.77,12.77,0,0,0,5.46-4.53A11.25,11.25,0,0,0,106.11,5Z"/>
        <path class="cls-1" d="M95.28,8.44V2.29H93.9a1.38,1.38,0,0,0-1.39,1.38V19.93H93.9a1.38,1.38,0,0,0,1.38-1.38V10.9h2.08a1.38,1.38,0,0,0,1.38-1.38V8.44Z"/>
        <path class="cls-1" d="M118.24,19.93h1.39A1.38,1.38,0,0,0,121,18.55V11.68h2.08a1.38,1.38,0,0,0,1.38-1.39v-1H121v-7h-1.38a1.38,1.38,0,0,0-1.39,1.38V19.93"/>
        <path class="cls-1" d="M128.41,5.28A1.39,1.39,0,0,0,127,6.67V21.28l4.88-.05c1.53,0,2.73-.09,3.6-.16L136,21a1.5,1.5,0,0,0,1.39-1.38V18.46c-.44.08-1.09.15-1.93.21s-1.69.11-2.56.13l-3.16,0V7.66h4.77a1.19,1.19,0,0,0,1.19-1.19V5.28Z"/>
        <path class="cls-1" d="M81.05,23.78v-5.4H79.66a1.38,1.38,0,0,0-1.38,1.39v6.34H94.67a1.39,1.39,0,0,0,1.39-1.39v-.94Z"/>
        <path class="cls-1" d="M107,23.78h14.85v.94a1.38,1.38,0,0,1-1.38,1.39H104.22V19.77a1.38,1.38,0,0,1,1.38-1.39H107Z"/>
        <path class="cls-1" d="M171.81,19.3v5.95a1.41,1.41,0,0,1-1.42,1.41H169V21.48H153.81V20.39a1.09,1.09,0,0,1,1.09-1.09Z"/>
        <path class="cls-1" d="M169,3.67a1.38,1.38,0,0,1,1.38-1.38h1.39l0,6.67h3.46v1a1.38,1.38,0,0,1-1.38,1.38h-2.08l0,5.07a1.38,1.38,0,0,1-1.39,1.38H169Z"/>
        <path class="cls-1" d="M197.67,5s-.06,1-.11,1.51-.24,2.63-.45,4.41c-.25,2-.52,3.85-.84,5.5l-.06.31c-.15.68-.55,1.24-1.23,1.24h-1.74c0-.17.27-1.5.68-4a46.18,46.18,0,0,0,.68-6.6H178.43V6.18A1.17,1.17,0,0,1,179.6,5Z"/>
        <path class="cls-1" d="M175.85,22.3A1.18,1.18,0,0,1,177,21.12h4.53v-7A1.41,1.41,0,0,1,183,12.76h1.41l0,8.36H188v-7a1.42,1.42,0,0,1,1.42-1.41h1.42l0,8.36,9.45,0v1.15a1.16,1.16,0,0,1-1.16,1.16l-23.22,0Z"/>
      </g>
    </g>
  </g>
</svg>
